<svg id="SvgjsSvg1182" width="770" height="513" xmlns="http://www.w3.org/2000/svg" version="1.1" xmlns:xlink="http://www.w3.org/1999/xlink" xmlns:svgjs="http://svgjs.com/svgjs"><defs id="SvgjsDefs1183"><marker id="SvgjsMarker1226" markerWidth="14" markerHeight="10" refX="10" refY="5" viewBox="0 0 14 10" orient="auto" markerUnits="userSpaceOnUse" stroke-dasharray="0,0"><path id="SvgjsPath1227" d="M0,0 L14,5 L0,10 L0,0" fill="#323232" stroke="#323232" stroke-width="1"></path></marker><marker id="SvgjsMarker1230" markerWidth="14" markerHeight="10" refX="10" refY="5" viewBox="0 0 14 10" orient="auto" markerUnits="userSpaceOnUse" stroke-dasharray="0,0"><path id="SvgjsPath1231" d="M0,0 L14,5 L0,10 L0,0" fill="#323232" stroke="#323232" stroke-width="1"></path></marker><marker id="SvgjsMarker1234" markerWidth="14" markerHeight="10" refX="10" refY="5" viewBox="0 0 14 10" orient="auto" markerUnits="userSpaceOnUse" stroke-dasharray="0,0"><path id="SvgjsPath1235" d="M0,0 L14,5 L0,10 L0,0" fill="#323232" stroke="#323232" stroke-width="1"></path></marker><marker id="SvgjsMarker1238" markerWidth="14" markerHeight="10" refX="10" refY="5" viewBox="0 0 14 10" orient="auto" markerUnits="userSpaceOnUse" stroke-dasharray="0,0"><path id="SvgjsPath1239" d="M0,0 L14,5 L0,10 L0,0" fill="#323232" stroke="#323232" stroke-width="1"></path></marker><marker id="SvgjsMarker1250" markerWidth="14" markerHeight="10" refX="10" refY="5" viewBox="0 0 14 10" orient="auto" markerUnits="userSpaceOnUse" stroke-dasharray="0,0"><path id="SvgjsPath1251" d="M0,0 L14,5 L0,10 L0,0" fill="#323232" stroke="#323232" stroke-width="1"></path></marker><marker id="SvgjsMarker1262" markerWidth="14" markerHeight="10" refX="10" refY="5" viewBox="0 0 14 10" orient="auto" markerUnits="userSpaceOnUse" stroke-dasharray="0,0"><path id="SvgjsPath1263" d="M0,0 L14,5 L0,10 L0,0" fill="#323232" stroke="#323232" stroke-width="1"></path></marker><marker id="SvgjsMarker1276" markerWidth="14" markerHeight="10" refX="10" refY="5" viewBox="0 0 14 10" orient="auto" markerUnits="userSpaceOnUse" stroke-dasharray="0,0"><path id="SvgjsPath1277" d="M0,0 L14,5 L0,10 L0,0" fill="#323232" stroke="#323232" stroke-width="1"></path></marker><marker id="SvgjsMarker1288" markerWidth="14" markerHeight="10" refX="10" refY="5" viewBox="0 0 14 10" orient="auto" markerUnits="userSpaceOnUse" stroke-dasharray="0,0"><path id="SvgjsPath1289" d="M0,0 L14,5 L0,10 L0,0" fill="#323232" stroke="#323232" stroke-width="1"></path></marker></defs><g id="SvgjsG1184" transform="translate(405,25)"><path id="SvgjsPath1185" d="M 0 35C 0 -11.666666666666666 70 -11.666666666666666 70 35C 70 81.66666666666667 0 81.66666666666667 0 35Z" stroke="rgba(50,50,50,1)" stroke-width="2" fill-opacity="1" fill="#2196f3"></path><g id="SvgjsG1186"><text id="SvgjsText1187" font-family="微软雅黑" text-anchor="middle" font-size="13px" width="50px" fill="#ffffff" font-weight="400" align="middle" lineHeight="125%" anchor="middle" family="微软雅黑" size="13px" weight="400" font-style="" opacity="1" y="15.875" transform="rotate(0)"><tspan id="SvgjsTspan1188" dy="16" x="35"><tspan id="SvgjsTspan1189" style="text-decoration:;">0</tspan></tspan><tspan id="SvgjsTspan1190" dy="16" x="35"><tspan id="SvgjsTspan1191" style="text-decoration:;">[0]</tspan></tspan></text></g></g><g id="SvgjsG1192" transform="translate(124,148)"><path id="SvgjsPath1193" d="M 0 35C 0 -11.666666666666666 70 -11.666666666666666 70 35C 70 81.66666666666667 0 81.66666666666667 0 35Z" stroke="rgba(50,50,50,1)" stroke-width="2" fill-opacity="1" fill="#2196f3"></path><g id="SvgjsG1194"><text id="SvgjsText1195" font-family="微软雅黑" text-anchor="middle" font-size="13px" width="50px" fill="#ffffff" font-weight="400" align="middle" lineHeight="125%" anchor="middle" family="微软雅黑" size="13px" weight="400" font-style="" opacity="1" y="15.875" transform="rotate(0)"><tspan id="SvgjsTspan1196" dy="16" x="35"><tspan id="SvgjsTspan1197" style="text-decoration:;">1</tspan></tspan><tspan id="SvgjsTspan1198" dy="16" x="35"><tspan id="SvgjsTspan1199" style="text-decoration:;">[1]</tspan></tspan></text></g></g><g id="SvgjsG1200" transform="translate(335,154)"><path id="SvgjsPath1201" d="M 0 35C 0 -11.666666666666666 70 -11.666666666666666 70 35C 70 81.66666666666667 0 81.66666666666667 0 35Z" stroke="rgba(50,50,50,1)" stroke-width="2" fill-opacity="1" fill="#ff0000"></path><g id="SvgjsG1202"><text id="SvgjsText1203" font-family="微软雅黑" text-anchor="middle" font-size="13px" width="50px" fill="#ffffff" font-weight="400" align="middle" lineHeight="125%" anchor="middle" family="微软雅黑" size="13px" weight="400" font-style="" opacity="1" y="15.875" transform="rotate(0)"><tspan id="SvgjsTspan1204" dy="16" x="35"><tspan id="SvgjsTspan1205" style="text-decoration:;">3</tspan></tspan><tspan id="SvgjsTspan1206" dy="16" x="35"><tspan id="SvgjsTspan1207" style="text-decoration:;">[3]</tspan></tspan></text></g></g><g id="SvgjsG1208" transform="translate(510,154)"><path id="SvgjsPath1209" d="M 0 35C 0 -11.666666666666666 70 -11.666666666666666 70 35C 70 81.66666666666667 0 81.66666666666667 0 35Z" stroke="rgba(50,50,50,1)" stroke-width="2" fill-opacity="1" fill="#ffffff"></path><g id="SvgjsG1210"><text id="SvgjsText1211" font-family="微软雅黑" text-anchor="middle" font-size="13px" width="50px" fill="#323232" font-weight="400" align="middle" lineHeight="125%" anchor="middle" family="微软雅黑" size="13px" weight="400" font-style="" opacity="1" y="15.875" transform="rotate(0)"><tspan id="SvgjsTspan1212" dy="16" x="35"><tspan id="SvgjsTspan1213" style="text-decoration:;">2</tspan></tspan><tspan id="SvgjsTspan1214" dy="16" x="35"><tspan id="SvgjsTspan1215" style="text-decoration:;">[4]</tspan></tspan></text></g></g><g id="SvgjsG1216" transform="translate(675,144)"><path id="SvgjsPath1217" d="M 0 35C 0 -11.666666666666666 70 -11.666666666666666 70 35C 70 81.66666666666667 0 81.66666666666667 0 35Z" stroke="rgba(50,50,50,1)" stroke-width="2" fill-opacity="1" fill="#ffffff"></path><g id="SvgjsG1218"><text id="SvgjsText1219" font-family="微软雅黑" text-anchor="middle" font-size="13px" width="50px" fill="#323232" font-weight="400" align="middle" lineHeight="125%" anchor="middle" family="微软雅黑" size="13px" weight="400" font-style="" opacity="1" y="15.875" transform="rotate(0)"><tspan id="SvgjsTspan1220" dy="16" x="35"><tspan id="SvgjsTspan1221" style="text-decoration:;">3</tspan></tspan><tspan id="SvgjsTspan1222" dy="16" x="35"><tspan id="SvgjsTspan1223" style="text-decoration:;">[5]</tspan></tspan></text></g></g><g id="SvgjsG1224"><path id="SvgjsPath1225" d="M439.0173263267999 95.18534414476727L162.5376252235202 147.33276107883785" stroke="#323232" stroke-width="2" fill="none" marker-end="url(#SvgjsMarker1226)"></path></g><g id="SvgjsG1228"><path id="SvgjsPath1229" d="M439.23537213691804 95.64447205602625L372.75266030709514 151.67990059830555" stroke="#323232" stroke-width="2" fill="none" marker-end="url(#SvgjsMarker1230)"></path></g><g id="SvgjsG1232"><path id="SvgjsPath1233" d="M440.8717971852881 95.48986698982856L541.8615301329628 152.23647883661715" stroke="#323232" stroke-width="2" fill="none" marker-end="url(#SvgjsMarker1234)"></path></g><g id="SvgjsG1236"><path id="SvgjsPath1237" d="M440.98392816469084 95.17856474099943L706.4578586071132 143.35716693240204" stroke="#323232" stroke-width="2" fill="none" marker-end="url(#SvgjsMarker1238)"></path></g><g id="SvgjsG1240" transform="translate(25,271)"><path id="SvgjsPath1241" d="M 0 35C 0 -11.666666666666666 70 -11.666666666666666 70 35C 70 81.66666666666667 0 81.66666666666667 0 35Z" stroke="rgba(50,50,50,1)" stroke-width="2" fill-opacity="1" fill="#ff0000"></path><g id="SvgjsG1242"><text id="SvgjsText1243" font-family="微软雅黑" text-anchor="middle" font-size="13px" width="50px" fill="#ffffff" font-weight="400" align="middle" lineHeight="125%" anchor="middle" family="微软雅黑" size="13px" weight="400" font-style="" opacity="1" y="15.875" transform="rotate(0)"><tspan id="SvgjsTspan1244" dy="16" x="35"><tspan id="SvgjsTspan1245" style="text-decoration:;">3</tspan></tspan><tspan id="SvgjsTspan1246" dy="16" x="35"><tspan id="SvgjsTspan1247" style="text-decoration:;">[3]</tspan></tspan></text></g></g><g id="SvgjsG1248"><path id="SvgjsPath1249" d="M158.11838767846194 218.47197427314666L63.173804357536966 269.3008926166721" stroke="#323232" stroke-width="2" fill="none" marker-end="url(#SvgjsMarker1250)"></path></g><g id="SvgjsG1252" transform="translate(207,271)"><path id="SvgjsPath1253" d="M 0 35C 0 -11.666666666666666 70 -11.666666666666666 70 35C 70 81.66666666666667 0 81.66666666666667 0 35Z" stroke="rgba(50,50,50,1)" stroke-width="2" fill-opacity="1" fill="#2196f3"></path><g id="SvgjsG1254"><text id="SvgjsText1255" font-family="微软雅黑" text-anchor="middle" font-size="13px" width="50px" fill="#ffffff" font-weight="400" align="middle" lineHeight="125%" anchor="middle" family="微软雅黑" size="13px" weight="400" font-style="" opacity="1" y="15.875" transform="rotate(0)"><tspan id="SvgjsTspan1256" dy="16" x="35"><tspan id="SvgjsTspan1257" style="text-decoration:;">2</tspan></tspan><tspan id="SvgjsTspan1258" dy="16" x="35"><tspan id="SvgjsTspan1259" style="text-decoration:;">[4]</tspan></tspan></text></g></g><g id="SvgjsG1260"><path id="SvgjsPath1261" d="M159.84282421063406 218.5381889537784L238.96583284171737 269.0625197663978" stroke="#323232" stroke-width="2" fill="none" marker-end="url(#SvgjsMarker1262)"></path></g><g id="SvgjsG1264" transform="translate(207,418)"><path id="SvgjsPath1265" d="M 0 35C 0 -11.666666666666666 70 -11.666666666666666 70 35C 70 81.66666666666667 0 81.66666666666667 0 35Z" stroke="rgba(50,50,50,1)" stroke-width="2" fill-opacity="1" fill="#2196f3"></path><g id="SvgjsG1266"><text id="SvgjsText1267" font-family="微软雅黑" text-anchor="middle" font-size="13px" width="50px" fill="#ffffff" font-weight="400" align="middle" lineHeight="125%" anchor="middle" family="微软雅黑" size="13px" weight="400" font-style="" opacity="1" y="7.875" transform="rotate(0)"><tspan id="SvgjsTspan1268" dy="16" x="35"><tspan id="SvgjsTspan1269" style="text-decoration:;">3</tspan></tspan><tspan id="SvgjsTspan1270" dy="16" x="35"><tspan id="SvgjsTspan1271" style="text-decoration:;">[5]</tspan></tspan><tspan id="SvgjsTspan1272" dy="16" x="35"><tspan id="SvgjsTspan1273" style="text-decoration:;"> </tspan></tspan></text></g></g><g id="SvgjsG1274"><path id="SvgjsPath1275" d="M242 342L242 414.4" stroke="#323232" stroke-width="2" fill="none" marker-end="url(#SvgjsMarker1276)"></path></g><g id="SvgjsG1278" transform="translate(510,293)"><path id="SvgjsPath1279" d="M 0 35C 0 -11.666666666666666 70 -11.666666666666666 70 35C 70 81.66666666666667 0 81.66666666666667 0 35Z" stroke="rgba(50,50,50,1)" stroke-width="2" fill-opacity="1" fill="#ffffff"></path><g id="SvgjsG1280"><text id="SvgjsText1281" font-family="微软雅黑" text-anchor="middle" font-size="13px" width="50px" fill="#323232" font-weight="400" align="middle" lineHeight="125%" anchor="middle" family="微软雅黑" size="13px" weight="400" font-style="" opacity="1" y="15.875" transform="rotate(0)"><tspan id="SvgjsTspan1282" dy="16" x="35"><tspan id="SvgjsTspan1283" style="text-decoration:;">3</tspan></tspan><tspan id="SvgjsTspan1284" dy="16" x="35"><tspan id="SvgjsTspan1285" style="text-decoration:;">[5]</tspan></tspan></text></g></g><g id="SvgjsG1286"><path id="SvgjsPath1287" d="M545 225L545 289.4" stroke="#323232" stroke-width="2" fill="none" marker-end="url(#SvgjsMarker1288)"></path></g></svg>